# xmcd
#
# Track frame offsets:
#	150
#	9216
#	16936
#	29032
#	38847
#	46755
#	58914
#	71882
#	79198
#	88071
#	98526
#	108972
#	120974
#	130044
#	142954
#	154298
#	164334
#	176303
#	188408
#	200697
#	208960
#	218179
#	228884
#	237648
#	248027
#	257708
#	267337
#	275048
#	287449
#	296230
#
# Disc length: 4075 seconds
#
# Revision: 0
# Processed by: cddbd v1.5.2PL0 Copyright (c) Steve Scherf et al.
# Submitted via: EasyCDDAExtractor 16.1.0.1
#
DISCID=b00fe91e
DTITLE=Rockabilly Hoodlums Volune 2
DYEAR=1900
DGENRE=
TTITLE0=Taylor Carmol - Free As A Breeze
TTITLE1=Clevenger Ken - Love Me All The Time
TTITLE2=Dortch Slim - Big Boy Rock
TTITLE3=Emanons - Emanons Rock
TTITLE4=Emanons - Old Man River
TTITLE5=Arky Prince Westerners - Ten Horned Devel
TTITLE6=Ivey Herb Swingsters - Rock Cats Rock
TTITLE7=Bingham Olen - Love Them Every One
TTITLE8=Jackson Marvin Ozark Toppers - Gee Whiz Miss Liz
TTITLE9=Free Billy - I'll Tear Your Playhouse Down
TTITLE10=Tickle Buck - That Other Woman
TTITLE11=Snow Danny - Forever
TTITLE12=French Steve - Crying With The Blues
TTITLE13=Pal Johnny Winchester Four - Tired Of Traveling
TTITLE14=Burton Ray - That Kind Of Carrying On
TTITLE15=Rambling Valley Boys - Guitar Hop
TTITLE16=James Tom - Hey Baby
TTITLE17=James Tom - Track Down Baby
TTITLE18=Tri Tones - Chicken In The Basket
TTITLE19=Carter Billy AV Looper - Cool Tom Cat
TTITLE20=Carr Jerry Travelers - I Laugh When I Should Have Been Listening
TTITLE21=Burton Ronnie - Somebody's Been Babying My Baby
TTITLE22=Carter Eddie Sunset Ramblers - Railroad Stomp
TTITLE23=Massey Bill Jerry Dove - Pink Bow Tie
TTITLE24=Bullock Norman Southerneers - Lies Lies Lies
TTITLE25=Bullock Norman Southerneers - Moanin The Blues
TTITLE26=Barr Glen Roger Harrison - Only Cowgirl In Town
TTITLE27=Collier Ralph - You'll Be running Home To Me
TTITLE28=Duzan Bill Corvettes - Shaften
TTITLE29=Barker Brothers - Hey Little Mama
EXTD=
EXTT0=
EXTT1=
EXTT2=
EXTT3=
EXTT4=
EXTT5=
EXTT6=
EXTT7=
EXTT8=
EXTT9=
EXTT10=
EXTT11=
EXTT12=
EXTT13=
EXTT14=
EXTT15=
EXTT16=
EXTT17=
EXTT18=
EXTT19=
EXTT20=
EXTT21=
EXTT22=
EXTT23=
EXTT24=
EXTT25=
EXTT26=
EXTT27=
EXTT28=
EXTT29=
PLAYORDER=
